<svg xmlns="http://www.w3.org/2000/svg" viewBox="0 0 668.12 120.53"><defs><style>.cls-1{fill:#0057a9;}.cls-2{font-size:81.21px;fill:#fff;font-family:Gordita-MediumItalic, Gordita;font-weight:500;font-style:italic;}.cls-3{fill:#172129;}</style></defs><g id="Layer_2" data-name="Layer 2"><g id="Layer_1-2" data-name="Layer 1"><path class="cls-1" d="M668.09,59.39a27.25,27.25,0,0,1-24.83,26.14,20.92,20.92,0,0,1-20.36,17l-1,0a20.54,20.54,0,0,1-14.07-6.55,21.56,21.56,0,0,1-19.19,12l-1,0-.31,0c0-.22,0-.43,0-.65a24.21,24.21,0,0,0-32.73-22.6c.16-1.69.24-3.34.24-4.94,0-14.39-4.73-26.71-14.06-36.63a48.64,48.64,0,0,0-12.27-9.52,30.83,30.83,0,0,1,26.52-15.31c.47,0,1,0,1.46,0a30.14,30.14,0,0,1,8.21,1.53A26.46,26.46,0,0,1,590.11,0c.42,0,.84,0,1.25,0a26.11,26.11,0,0,1,20.29,11.35A19.68,19.68,0,0,1,622.72,8l.95,0a20.33,20.33,0,0,1,19.11,21.42c0,.41,0,.82-.09,1.22C657.42,31.48,668.77,44.29,668.09,59.39Z"/><text class="cls-2" transform="translate(570.99 74.31)">π</text><path class="cls-3" d="M85.56,38.83q13.31,0,21.28,8.67t8,23.21v47.65h-20V72.1q0-7-3.41-10.83T81.85,57.4q-6.81,0-10.6,4.49t-3.79,13v43.47h-20V72.1q0-7-3.4-10.83T34.5,57.4a13.4,13.4,0,0,0-10.59,4.49q-4,4.48-3.95,13v43.47H0V41H20v8.2q7-10.37,21.51-10.37,14.24,0,21,11.14Q70.25,38.84,85.56,38.83Z"/><path class="cls-3" d="M148.69,87.88q4,14.55,21.82,14.55,11.44,0,17.33-7.74L203.93,104q-11.46,16.56-33.73,16.56-19.19,0-30.79-11.6T127.8,79.68q0-17.48,11.45-29.16t29.4-11.69q17,0,28.08,11.76T207.8,79.68a46.27,46.27,0,0,1-.78,8.2Zm-.31-15.47h39.46q-1.71-7.89-7-11.76a20.18,20.18,0,0,0-12.15-3.87q-8,0-13.31,4.1A19.64,19.64,0,0,0,148.38,72.41Z"/><path class="cls-3" d="M241.68,54.31a20.85,20.85,0,0,1,9.21-11.14,28,28,0,0,1,14.31-3.72V61.73a23.48,23.48,0,0,0-16.32,3.72q-7.2,4.8-7.2,15.93v37h-20V41h20Z"/><path class="cls-3" d="M286.7,31.72a11.7,11.7,0,0,1-8.58-3.64,11.71,11.71,0,0,1-3.64-8.59,12,12,0,0,1,3.64-8.66,11.58,11.58,0,0,1,8.58-3.71,11.79,11.79,0,0,1,8.75,3.71,12,12,0,0,1,3.63,8.66,11.74,11.74,0,0,1-3.63,8.59A11.92,11.92,0,0,1,286.7,31.72Zm-9.9,86.64V41h20v77.36Z"/><path class="cls-3" d="M373.81,41h20v77.36h-20v-9.12q-9,11.3-25.22,11.29-15.46,0-26.53-11.84T311,79.68q0-17.18,11.06-29t26.53-11.84q16.25,0,25.22,11.3ZM337,95.39a20.63,20.63,0,0,0,15.32,6.11,20.87,20.87,0,0,0,15.39-6.11q6.12-6.12,6.11-15.71T367.7,64a20.83,20.83,0,0,0-15.39-6.11A20.59,20.59,0,0,0,337,64q-6,6.1-6,15.7T337,95.39Z"/><path class="cls-3" d="M456.13,60.19H438.64V92.37q0,4,2,5.88a9.23,9.23,0,0,0,5.88,2.09,86.93,86.93,0,0,0,9.59-.08v18.1q-20.58,2.33-29-3.86t-8.44-22.13V60.19H405.22V41h13.46V25.37l20-6V41h17.49Z"/><path class="cls-3" d="M484.75,87.88q4,14.55,21.82,14.55,11.45,0,17.33-7.74L540,104q-11.46,16.56-33.73,16.56-19.18,0-30.79-11.6T463.86,79.68q0-17.48,11.45-29.16t29.4-11.69q17,0,28.08,11.76t11.07,29.09a46.27,46.27,0,0,1-.78,8.2Zm-.31-15.47H523.9q-1.71-7.89-7-11.76a20.18,20.18,0,0,0-12.15-3.87q-8,0-13.3,4.1A19.65,19.65,0,0,0,484.44,72.41Z"/><path class="cls-1" d="M572.48,116.51a13.07,13.07,0,1,1,3.87-9.29A12.69,12.69,0,0,1,572.48,116.51Z"/></g></g></svg>